<?xml version="1.0" encoding="UTF-8"?><svg id="Layer_1" xmlns="http://www.w3.org/2000/svg" viewBox="0 0 636.35 323.13"><defs><style>.cls-1{fill:#86efac;stroke-width:0px;}</style></defs><path class="cls-1" d="m626.45,56.23c-7.97-17.44-19.99-31.55-34.47-41.28-14.32-9.62-31.03-14.95-48.64-14.95h-40.26c-12.74,0-25.11,4.75-35.06,13.46l-137.99,120.87L194.68,15.76C179.9,5.58,162.68,0,145.13,0h-52.12C57.57,0,25.73,21.55,9.9,56.23c-15.84,34.69-12.48,75.52,8.77,106.54l81.97,119.65c15.22,22.22,37.46,36.38,62.63,39.88,25.15,3.5,49.94-4.14,69.75-21.48l85.16-74.6,85.16,74.6c16.67,14.59,36.84,22.31,57.81,22.31,3.96,0,7.95-.28,11.94-.83,25.17-3.5,47.41-17.66,62.63-39.88l81.96-119.65c12.36-18.04,18.67-39.4,18.67-60.94,0-15.49-3.26-31.08-9.89-45.6ZM187.02,237.88c-2.59,2.27-5.25,3.46-7.67,4.07-2.77.69-5.21.62-6.82.39-2.77-.38-7.74-1.96-11.84-6.95-.38-.47-.8-.79-1.17-1.33l-81.97-119.65c-6.46-9.43-3.42-18.62-1.82-22.13,1.6-3.51,6.5-11.68,17.27-11.68h52.12c4.38,0,8.66,1.64,12.06,4.62l102.07,89.4-72.23,63.26Zm371.76-123.47l-81.96,119.65c-3.5,5.11-7.9,7.06-11.06,7.85-.69.18-1.41.36-1.95.43-3.03.43-8.94.41-14.49-4.46l-4.36-3.82-67.87-59.44,102.05-89.39c3.42-2.99,7.7-4.63,12.07-4.63h52.13c10.77,0,15.66,8.17,17.27,11.68,1.6,3.51,4.63,12.7-1.83,22.13Z"/></svg>