<?xml version="1.0" encoding="UTF-8"?><svg id="Layer_1" xmlns="http://www.w3.org/2000/svg" viewBox="0 0 938.77 601.19"><defs><style>.cls-1{fill:#86efac;}.cls-1,.cls-2{stroke-width:0px;}.cls-2{fill:#fff;}</style></defs><rect class="cls-1" x=".59" y=".59" width="937.58" height="600"/><path class="cls-2" d="m148.83,469.81l-19.11,52.73h-14.7l-11.86-32.73-12.25,32.73h-14.7l-19.01-52.73h14.41l12.45,35.67,12.94-35.67h12.94l12.54,35.67,12.84-35.67h13.52-.01Z"/><path class="cls-2" d="m205.87,500.49h-39.89c1.47,6.57,7.06,10.58,15.09,10.58,5.59,0,9.6-1.67,13.23-5.1l8.13,8.82c-4.9,5.59-12.25,8.53-21.76,8.53-18.23,0-30.09-11.47-30.09-27.15s12.06-27.15,28.13-27.15,27.44,10.39,27.44,27.34c0,1.18-.2,2.84-.29,4.12h.01Zm-40.08-8.92h25.97c-1.08-6.66-6.08-10.98-12.94-10.98s-11.96,4.21-13.04,10.98h.01Z"/><path class="cls-2" d="m273.78,496.18c0,16.56-11.47,27.15-26.27,27.15-7.06,0-12.74-2.25-16.56-6.86v6.08h-14.6v-72.72h15.29v25.58c3.92-4.31,9.31-6.37,15.88-6.37,14.8,0,26.27,10.58,26.27,27.15h0Zm-15.48,0c0-9.11-5.78-14.6-13.43-14.6s-13.43,5.49-13.43,14.6,5.78,14.6,13.43,14.6,13.43-5.49,13.43-14.6h0Z"/><path class="cls-2" d="m335.32,500.49h-39.89c1.47,6.57,7.06,10.58,15.09,10.58,5.59,0,9.6-1.67,13.23-5.1l8.13,8.82c-4.9,5.59-12.25,8.53-21.76,8.53-18.23,0-30.09-11.47-30.09-27.15s12.06-27.15,28.13-27.15,27.44,10.39,27.44,27.34c0,1.18-.2,2.84-.29,4.12h.01Zm-40.08-8.92h25.97c-1.08-6.66-6.08-10.98-12.94-10.98s-11.96,4.21-13.04,10.98h.01Z"/><path class="cls-2" d="m377.85,522.54l-11.57-16.17-11.96,16.17h-16.66l20.29-26.56-19.6-26.17h17.15l11.17,15.39,11.47-15.39h16.27l-19.6,25.78,20.38,26.95h-17.35.01Z"/><path class="cls-2" d="m460.08,496.18c0,16.56-11.47,27.15-26.27,27.15-6.57,0-11.96-2.06-15.88-6.37v24.6h-15.29v-71.74h14.6v6.08c3.82-4.61,9.51-6.86,16.56-6.86,14.8,0,26.27,10.58,26.27,27.15h.01Zm-15.48,0c0-9.11-5.78-14.6-13.43-14.6s-13.43,5.49-13.43,14.6,5.78,14.6,13.43,14.6,13.43-5.49,13.43-14.6Z"/><path class="cls-2" d="m503,469.03v14.11c-1.27-.1-2.25-.2-3.43-.2-8.43,0-14.01,4.61-14.01,14.7v24.89h-15.29v-52.73h14.6v6.96c3.72-5.1,10-7.74,18.13-7.74h0Z"/><path class="cls-2" d="m562.98,500.49h-39.89c1.47,6.57,7.06,10.58,15.09,10.58,5.59,0,9.6-1.67,13.23-5.1l8.13,8.82c-4.9,5.59-12.25,8.53-21.76,8.53-18.23,0-30.09-11.47-30.09-27.15s12.06-27.15,28.13-27.15,27.44,10.39,27.44,27.34c0,1.18-.2,2.84-.29,4.12h.01Zm-40.08-8.92h25.97c-1.08-6.66-6.08-10.98-12.94-10.98s-11.96,4.21-13.04,10.98h.01Z"/><path class="cls-2" d="m568.36,517.64l5.1-10.98c4.7,3.04,11.86,5.1,18.33,5.1,7.06,0,9.7-1.86,9.7-4.8,0-8.62-31.85.2-31.85-20.88,0-10,9.02-17.05,24.4-17.05,7.25,0,15.29,1.67,20.29,4.61l-5.1,10.88c-5.19-2.94-10.39-3.92-15.19-3.92-6.86,0-9.8,2.16-9.8,4.9,0,9.02,31.85.29,31.85,21.07,0,9.8-9.11,16.76-24.89,16.76-8.92,0-17.94-2.45-22.84-5.68h0Z"/><path class="cls-2" d="m620.4,517.64l5.1-10.98c4.7,3.04,11.86,5.1,18.33,5.1,7.06,0,9.7-1.86,9.7-4.8,0-8.62-31.85.2-31.85-20.88,0-10,9.02-17.05,24.4-17.05,7.25,0,15.29,1.67,20.29,4.61l-5.1,10.88c-5.19-2.94-10.39-3.92-15.19-3.92-6.86,0-9.8,2.16-9.8,4.9,0,9.02,31.85.29,31.85,21.07,0,9.8-9.11,16.76-24.89,16.76-8.92,0-17.94-2.45-22.84-5.68h0Z"/><path class="cls-2" d="m675.67,453.93c0-4.8,3.82-8.53,9.51-8.53s9.51,3.53,9.51,8.23c0,5.1-3.82,8.82-9.51,8.82s-9.51-3.72-9.51-8.53h0Zm1.86,15.88h15.29v52.73h-15.29v-52.73Z"/><path class="cls-2" d="m703.11,496.18c0-15.88,12.25-27.15,29.01-27.15s28.91,11.27,28.91,27.15-12.15,27.15-28.91,27.15-29.01-11.27-29.01-27.15Zm42.44,0c0-9.11-5.78-14.6-13.43-14.6s-13.53,5.49-13.53,14.6,5.88,14.6,13.53,14.6,13.43-5.49,13.43-14.6Z"/><path class="cls-2" d="m825.12,492.35v30.19h-15.29v-27.83c0-8.53-3.92-12.45-10.68-12.45-7.35,0-12.64,4.51-12.64,14.21v26.07h-15.29v-52.73h14.6v6.17c4.12-4.51,10.29-6.96,17.45-6.96,12.45,0,21.86,7.25,21.86,23.33h-.01Z"/><path class="cls-2" d="m833.84,517.64l5.1-10.98c4.7,3.04,11.86,5.1,18.33,5.1,7.06,0,9.7-1.86,9.7-4.8,0-8.62-31.85.2-31.85-20.88,0-10,9.02-17.05,24.4-17.05,7.25,0,15.29,1.67,20.29,4.61l-5.1,10.88c-5.19-2.94-10.39-3.92-15.19-3.92-6.86,0-9.8,2.16-9.8,4.9,0,9.02,31.85.29,31.85,21.07,0,9.8-9.11,16.76-24.89,16.76-8.92,0-17.94-2.45-22.84-5.68h0Z"/><path class="cls-2" d="m777.66,115.86c-7.97-17.44-19.99-31.55-34.47-41.28-14.32-9.62-31.03-14.95-48.64-14.95h-40.26c-12.74,0-25.11,4.75-35.06,13.46l-137.99,120.87-135.35-118.57c-14.78-10.18-32-15.76-49.55-15.76h-52.12c-35.44,0-67.28,21.55-83.11,56.23-15.84,34.69-12.48,75.52,8.77,106.54l81.97,119.65c15.22,22.22,37.46,36.38,62.63,39.88,25.15,3.5,49.94-4.14,69.75-21.48l85.16-74.6,85.16,74.6c16.67,14.59,36.84,22.31,57.81,22.31,3.96,0,7.95-.28,11.94-.83,25.17-3.5,47.41-17.66,62.63-39.88l81.96-119.65c12.36-18.04,18.67-39.4,18.67-60.94,0-15.49-3.26-31.08-9.89-45.6h0Zm-439.43,181.65c-2.59,2.27-5.25,3.46-7.67,4.07-2.77.69-5.21.62-6.82.39-2.77-.38-7.74-1.96-11.84-6.95-.38-.47-.8-.79-1.17-1.33l-81.97-119.65c-6.46-9.43-3.42-18.62-1.82-22.13,1.6-3.51,6.5-11.68,17.27-11.68h52.12c4.38,0,8.66,1.64,12.06,4.62l102.07,89.4-72.23,63.26h0Zm371.76-123.47l-81.96,119.65c-3.5,5.11-7.9,7.06-11.06,7.85-.69.18-1.41.36-1.95.43-3.03.43-8.94.41-14.49-4.46l-4.36-3.82-67.87-59.44,102.05-89.39c3.42-2.99,7.7-4.63,12.07-4.63h52.13c10.77,0,15.66,8.17,17.27,11.68,1.6,3.51,4.63,12.7-1.83,22.13h0Z"/></svg>